<svg version="1.1" id="Layer_1" xmlns="http://www.w3.org/2000/svg" xmlns:xlink="http://www.w3.org/1999/xlink" x="0px" y="0px"
	 width="100%" viewBox="0 0 1680 900" enable-background="new 0 0 1680 900" xml:space="preserve">
<path fill="#ffde8a66" opacity="1.000000" stroke="none" 
	d="
M1434.000000,0.999993 
	C1516.323364,1.000000 1598.646606,1.000000 1680.984985,1.000000 
	C1680.984985,300.953461 1680.984985,600.906921 1680.984985,900.930176 
	C1121.114746,900.930176 561.229492,900.930176 1.000000,900.930176 
	C1.000000,719.970764 1.000000,538.941345 1.411390,357.462830 
	C2.654488,356.987396 3.547315,357.151642 4.309123,356.907318 
	C40.736221,345.224457 77.274292,333.934906 114.677567,325.710968 
	C128.105087,322.758636 141.473495,319.428772 155.014893,317.131989 
	C170.118042,314.570312 185.354919,312.683685 200.593140,311.063141 
	C216.580780,309.362915 232.618866,307.916260 248.672699,307.128876 
	C261.649536,306.492371 274.684052,306.879211 287.690033,307.042297 
	C296.282379,307.149994 304.889160,307.406494 313.454742,308.055267 
	C328.327972,309.181763 343.222137,310.276489 358.018463,312.105194 
	C372.846252,313.937836 387.587280,316.520538 402.327087,319.007019 
	C432.647247,324.121826 462.147949,332.489471 491.405151,341.787109 
	C526.300049,352.876312 560.351318,366.261078 593.227722,382.252106 
	C622.134155,396.312195 650.452209,411.657898 678.503540,427.375580 
	C699.613770,439.204041 719.906799,452.493469 740.534119,465.180542 
	C765.371155,480.456970 791.540833,493.240234 818.682983,503.589874 
	C842.560486,512.694702 867.301086,519.547119 891.730469,527.169983 
	C893.405396,527.692566 896.377686,526.999817 897.537048,525.750122 
	C904.561157,518.178711 911.635193,510.591248 917.940613,502.428375 
	C931.531982,484.833099 945.276917,467.303925 957.848755,448.985718 
	C977.059143,420.994720 995.140991,392.232147 1014.055603,364.034302 
	C1032.263306,336.890381 1050.431641,309.695496 1069.546021,283.192810 
	C1082.865479,264.725128 1097.453003,247.138687 1112.032227,229.623138 
	C1124.318237,214.862915 1136.806641,200.177536 1150.291260,186.531967 
	C1167.957642,168.654694 1186.458496,151.576385 1205.054077,134.652893 
	C1216.012329,124.679985 1227.386230,115.029472 1239.399170,106.381485 
	C1257.166870,93.590714 1275.555542,81.646667 1293.887451,69.659615 
	C1316.402466,54.937279 1339.970703,42.006538 1364.576660,31.176155 
	C1387.045166,21.286570 1409.937500,12.360008 1432.615479,2.942580 
	C1433.238403,2.683839 1433.545532,1.664603 1434.000000,0.999993 
z"/>
<path fill="#000000" opacity="1.000000" stroke="none" 
	d="
M1433.531372,0.999993 
	C1433.545532,1.664603 1433.238403,2.683839 1432.615479,2.942580 
	C1409.937500,12.360008 1387.045166,21.286570 1364.576660,31.176155 
	C1339.970703,42.006538 1316.402466,54.937279 1293.887451,69.659615 
	C1275.555542,81.646667 1257.166870,93.590714 1239.399170,106.381485 
	C1227.386230,115.029472 1216.012329,124.679985 1205.054077,134.652893 
	C1186.458496,151.576385 1167.957642,168.654694 1150.291260,186.531967 
	C1136.806641,200.177536 1124.318237,214.862915 1112.032227,229.623138 
	C1097.453003,247.138687 1082.865479,264.725128 1069.546021,283.192810 
	C1050.431641,309.695496 1032.263306,336.890381 1014.055603,364.034302 
	C995.140991,392.232147 977.059143,420.994720 957.848755,448.985718 
	C945.276917,467.303925 931.531982,484.833099 917.940613,502.428375 
	C911.635193,510.591248 904.561157,518.178711 897.537048,525.750122 
	C896.377686,526.999817 893.405396,527.692566 891.730469,527.169983 
	C867.301086,519.547119 842.560486,512.694702 818.682983,503.589874 
	C791.540833,493.240234 765.371155,480.456970 740.534119,465.180542 
	C719.906799,452.493469 699.613770,439.204041 678.503540,427.375580 
	C650.452209,411.657898 622.134155,396.312195 593.227722,382.252106 
	C560.351318,366.261078 526.300049,352.876312 491.405151,341.787109 
	C462.147949,332.489471 432.647247,324.121826 402.327087,319.007019 
	C387.587280,316.520538 372.846252,313.937836 358.018463,312.105194 
	C343.222137,310.276489 328.327972,309.181763 313.454742,308.055267 
	C304.889160,307.406494 296.282379,307.149994 287.690033,307.042297 
	C274.684052,306.879211 261.649536,306.492371 248.672699,307.128876 
	C232.618866,307.916260 216.580780,309.362915 200.593140,311.063141 
	C185.354919,312.683685 170.118042,314.570312 155.014893,317.131989 
	C141.473495,319.428772 128.105087,322.758636 114.677567,325.710968 
	C77.274292,333.934906 40.736221,345.224457 4.309123,356.907318 
	C3.547315,357.151642 2.654488,356.987396 1.411390,357.006866 
	C1.000000,238.362350 1.000000,119.724693 1.000000,1.000000 
	C478.354248,1.000000 955.708496,1.000000 1433.531372,0.999993 
z"/>
</svg>